# xmcd
# 
# Track frame offsets:
#     150
#     13065
#     30308
#     48126
#     73582
#     89717
#     109720
#     126031
#     145567
#     165734
#     183383
#     191472
# 
# Disc length: 2823
# 
# Revision: 2
# Processed by: cddbd v1.5.2PL0 Copyright (c) Steve Scherf et al.
# Submitted via: BonkEnc v1.0.8
# 
DISCID=980b050c
DTITLE=Luboos Bena and Matej Ptaszek - Sound from the street
DYEAR=2007
DGENRE=Blues
TTITLE0=Sweet Home Chicago - Robert Johnsonn
TTITLE1=Good Morning Blues - Huddie Ledbetter
TTITLE2=Mean Old Frisco - Arthur Cudrupp
TTITLE3=I'm In The Mood - Arthur Cudrupp
TTITLE4=Good Morning Little Schoolgirl - Sonny Boy Williamson
TTITLE5=Sitting On The Top Of The Hill - Mississipi Sheiks
TTITLE6=That's All Right - Elvis Presley
TTITLE7=Trouble In The Mind - Sonny Terry and Brownie McGhee
TTITLE8=Down By The Riverside - Traditional
TTITLE9=Cornbread, Peas And Black Molasses - Sonny Terry and Brownie McGhee
TTITLE10=Bye Bye Bird - Sonny Boy Williamson
TTITLE11=When The Saints Go Marchining - Traditional
EXTD=YEAR: 2007
EXTT0=
EXTT1=
EXTT2=
EXTT3=
EXTT4=
EXTT5=
EXTT6=
EXTT7=
EXTT8=
EXTT9=
EXTT10=
EXTT11=
PLAYORDER=
